<?xml version="1.0"?>
<svg xmlns="http://www.w3.org/2000/svg" xmlns:xlink="http://www.w3.org/1999/xlink" xmlns:svgjs="http://svgjs.com/svgjs" version="1.1" width="512" height="512" x="0" y="0" viewBox="0 0 512 512" style="enable-background:new 0 0 512 512" xml:space="preserve"><g><title xmlns="http://www.w3.org/2000/svg">Settings</title><path xmlns="http://www.w3.org/2000/svg" d="M350.344,104.344A150.918,150.918,0,0,0,256,137.351a150.918,150.918,0,0,0-94.344-33.007C78.032,104.344,10,172.376,10,256S78.032,407.656,161.656,407.656A150.918,150.918,0,0,0,256,374.649a150.918,150.918,0,0,0,94.344,33.007C433.968,407.656,502,339.624,502,256S433.968,104.344,350.344,104.344ZM161.656,391.656C86.855,391.656,26,330.8,26,256S86.855,120.344,161.656,120.344a134.958,134.958,0,0,1,82.182,27.8,151.391,151.391,0,0,0,0,215.7A134.958,134.958,0,0,1,161.656,391.656ZM265.654,169H246.346A136.883,136.883,0,0,1,256,158.623,136.883,136.883,0,0,1,265.654,169ZM256,353.377A136.677,136.677,0,0,1,240.13,335h31.74A136.677,136.677,0,0,1,256,353.377ZM281.766,319H230.234a134.885,134.885,0,0,1-9.824-24h71.18A134.885,134.885,0,0,1,281.766,319Zm13.588-40H216.646a135.975,135.975,0,0,1-1.653-14h82.014A135.975,135.975,0,0,1,295.354,279Zm-80.488-30a135.179,135.179,0,0,1,3.4-24h75.468a135.179,135.179,0,0,1,3.4,24Zm8.221-40A135.222,135.222,0,0,1,234.8,185h42.4a135.222,135.222,0,0,1,11.712,24ZM350.344,391.656a134.958,134.958,0,0,1-82.182-27.8,151.391,151.391,0,0,0,0-215.7,134.958,134.958,0,0,1,82.182-27.8C425.145,120.344,486,181.2,486,256S425.145,391.656,350.344,391.656Z" fill="#d7d7d7" data-original="#000000" style=""/></g></svg>
