<?xml version="1.0"?>
<svg xmlns="http://www.w3.org/2000/svg" xmlns:xlink="http://www.w3.org/1999/xlink" xmlns:svgjs="http://svgjs.com/svgjs" version="1.1" width="512" height="512" x="0" y="0" viewBox="0 0 512 512" style="enable-background:new 0 0 512 512" xml:space="preserve" class=""><g><title xmlns="http://www.w3.org/2000/svg">Camera2</title><path xmlns="http://www.w3.org/2000/svg" d="M465.781,122H420.612a12,12,0,0,1-11.831-10.025l-4.729-27.766A27.822,27.822,0,0,0,376.448,61H376.4l-141.185.109a27.853,27.853,0,0,0-27.585,23.407l-4.5,27.424A11.958,11.958,0,0,1,191.293,122H120V97.649A7.708,7.708,0,0,0,112,90H57a7.708,7.708,0,0,0-8,7.649V122H46.219A28.165,28.165,0,0,0,18,149.936V423.248C18,438.687,30.78,451,46.219,451H465.781C481.22,451,494,438.687,494,423.248V149.936A28.165,28.165,0,0,0,465.781,122ZM65,106h39v16H65ZM34,423.248V149.936A12.148,12.148,0,0,1,46.219,138H118V435H46.219A11.994,11.994,0,0,1,34,423.248Zm444,0A11.994,11.994,0,0,1,465.781,435H134V138h57.293a27.927,27.927,0,0,0,27.631-23.5l4.5-27.439a11.859,11.859,0,0,1,11.823-9.942L376.427,77h.021a11.857,11.857,0,0,1,11.83,9.869l4.728,27.844A27.9,27.9,0,0,0,420.612,138h45.169A12.148,12.148,0,0,1,478,149.936Z" fill="#d7d7d7" data-original="#000000" style="" class=""/><path xmlns="http://www.w3.org/2000/svg" d="M305.719,143.029c-75.559,0-137.031,61.472-137.031,137.032S230.16,417.092,305.719,417.092,442.75,355.62,442.75,280.061,381.278,143.029,305.719,143.029Zm0,258.063A121.032,121.032,0,1,1,426.75,280.061,121.168,121.168,0,0,1,305.719,401.092Z" fill="#d7d7d7" data-original="#000000" style="" class=""/><path xmlns="http://www.w3.org/2000/svg" d="M305.719,194.617a85.444,85.444,0,1,0,85.444,85.444A85.541,85.541,0,0,0,305.719,194.617Zm0,154.887a69.444,69.444,0,1,1,69.444-69.443A69.522,69.522,0,0,1,305.719,349.5Z" fill="#d7d7d7" data-original="#000000" style="" class=""/></g></svg>
