<?xml version="1.0"?>
<svg xmlns="http://www.w3.org/2000/svg" xmlns:xlink="http://www.w3.org/1999/xlink" xmlns:svgjs="http://svgjs.com/svgjs" version="1.1" width="512" height="512" x="0" y="0" viewBox="0 0 512 512" style="enable-background:new 0 0 512 512" xml:space="preserve"><g><title xmlns="http://www.w3.org/2000/svg">Frame</title><path xmlns="http://www.w3.org/2000/svg" d="M53,166.082a8,8,0,0,0,8-8V79h79.279a8,8,0,0,0,0-16H53.042A7.906,7.906,0,0,0,45,70.846v87.236A8,8,0,0,0,53,166.082Z" fill="#d7d7d7" data-original="#000000" style=""/><path xmlns="http://www.w3.org/2000/svg" d="M458.957,63H371.722a8,8,0,0,0,0,16H451v79.082a8,8,0,0,0,16,0V70.846A7.907,7.907,0,0,0,458.957,63Z" fill="#d7d7d7" data-original="#000000" style=""/><path xmlns="http://www.w3.org/2000/svg" d="M459,345.918a8,8,0,0,0-8,8V433H371.722a8,8,0,0,0,0,16h87.235A7.907,7.907,0,0,0,467,441.154V353.918A8,8,0,0,0,459,345.918Z" fill="#d7d7d7" data-original="#000000" style=""/><path xmlns="http://www.w3.org/2000/svg" d="M140.279,433H61V353.918a8,8,0,0,0-16,0v87.236A7.906,7.906,0,0,0,53.042,449h87.237a8,8,0,0,0,0-16Z" fill="#d7d7d7" data-original="#000000" style=""/><path xmlns="http://www.w3.org/2000/svg" d="M256.39,159.211c-53.558,0-97.13,43.475-97.13,96.913s43.572,96.913,97.13,96.913,97.131-43.475,97.131-96.913S309.948,159.211,256.39,159.211Zm0,177.826a80.913,80.913,0,1,1,81.131-80.913A81.113,81.113,0,0,1,256.39,337.037Z" fill="#d7d7d7" data-original="#000000" style=""/><path xmlns="http://www.w3.org/2000/svg" d="M385.1,264h24.024a8,8,0,1,0,0-16H385.1C381.1,183,329,131.4,264,127.417V103.265a8,8,0,1,0-16,0v24.152C184,131.4,131.676,183,127.684,248H102.877a8,8,0,0,0,0,16h24.805C131.655,329,184,380.848,248,384.831v23.9a8,8,0,0,0,16,0v-23.9C329,380.848,381.125,329,385.1,264ZM256.39,369.087A112.963,112.963,0,1,1,369.354,256.124,113.091,113.091,0,0,1,256.39,369.087Z" fill="#d7d7d7" data-original="#000000" style=""/></g></svg>
