<?xml version="1.0"?>
<svg xmlns="http://www.w3.org/2000/svg" xmlns:xlink="http://www.w3.org/1999/xlink" xmlns:svgjs="http://svgjs.com/svgjs" version="1.1" width="512" height="512" x="0" y="0" viewBox="0 0 512 512" style="enable-background:new 0 0 512 512" xml:space="preserve" class=""><g><title xmlns="http://www.w3.org/2000/svg">Interface</title><path xmlns="http://www.w3.org/2000/svg" d="M467.414,37H51.07c-1.989,0-3.982-.293-5.98-.293a6.226,6.226,0,0,0-1.491.081,7.711,7.711,0,0,0-6.6,7.8V467.414A7.311,7.311,0,0,0,44.586,475H456.4c1.99,0,3.983,1,5.981,1h4.032c.4,0,.575-.288.956-.344A8.045,8.045,0,0,0,475,467.414V44.586A7.311,7.311,0,0,0,467.414,37ZM138,75.165V138H53V52.653A201.5,201.5,0,0,1,138,75.165ZM264,290.408V264h94v94H287.523A196.446,196.446,0,0,1,264,290.408ZM269.181,358H264V347.182Q266.433,352.66,269.181,358ZM154,154h65.945a196.441,196.441,0,0,1,25.744,94H154Zm-16,94H53V154h85Zm100.288-94H248v21.88A211.268,211.268,0,0,0,238.288,154ZM374,264h85v94H374Zm0-16V154h85v94Zm-16,0H264V154h94ZM264,138V53h94v85Zm-16,0H229.166a217,217,0,0,0-30.907-38.55A217.669,217.669,0,0,0,154,65.556V53h94Zm-38.2,0H154V84.445A201.532,201.532,0,0,1,209.8,138ZM53,264h85v94H53Zm101,0h91.777A216.169,216.169,0,0,0,248,291.761V358H154Zm94,110v85H154V374Zm16,0h14.3A218.245,218.245,0,0,0,358,449v10H264Zm33.667,0H358v56.392A201.571,201.571,0,0,1,297.667,374ZM374,374h85v85h-2.343c-29.588,0-57.588-7.627-82.657-19.878Zm85-236H374V53h85ZM138,53v4.155A69.617,69.617,0,0,0,127.607,53ZM53,374h85v85H53Zm321,85v-2.085c1.941.862,3.895,2.085,5.86,2.085Z" fill="#d7d7d7" data-original="#000000" style=""/></g></svg>
