<?xml version="1.0"?>
<svg xmlns="http://www.w3.org/2000/svg" xmlns:xlink="http://www.w3.org/1999/xlink" xmlns:svgjs="http://svgjs.com/svgjs" version="1.1" width="512" height="512" x="0" y="0" viewBox="0 0 512 512" style="enable-background:new 0 0 512 512" xml:space="preserve" class=""><g><title xmlns="http://www.w3.org/2000/svg">Camera3</title><path xmlns="http://www.w3.org/2000/svg" d="M130.813,192.173a63.19,63.19,0,1,0-63.19-63.19A63.26,63.26,0,0,0,130.813,192.173Zm0-110.379a47.19,47.19,0,1,1-47.19,47.189A47.243,47.243,0,0,1,130.813,81.794Z" fill="#d7d7d7" data-original="#000000" style="" class=""/><path xmlns="http://www.w3.org/2000/svg" d="M37,479.716A8.459,8.459,0,0,0,45.245,488H216.381c4.418,0,7.619-3.865,7.619-8.284V354h32v54.629c0,4.418,3.161,8.371,7.579,8.371H477.887A8.422,8.422,0,0,0,486,408.629V218.366A8.417,8.417,0,0,0,477.887,210H263.579c-4.418,0-7.579,3.947-7.579,8.366V273H224V175.925A104.612,104.612,0,1,0,25.943,128.983,105.54,105.54,0,0,0,37,175.925ZM272,226H470V401H272ZM172,472H90V434h82Zm84-183v49H224V289ZM208,472H188V426.4a8.4,8.4,0,0,0-8.053-8.4H81.679C77.261,418,74,421.982,74,426.4V472H53V199.232a104.4,104.4,0,0,0,155,0ZM130.813,40.284a88.7,88.7,0,1,1-88.7,88.7A88.8,88.8,0,0,1,130.813,40.284Z" fill="#d7d7d7" data-original="#000000" style="" class=""/><path xmlns="http://www.w3.org/2000/svg" d="M131.336,285.658a28.649,28.649,0,1,0,28.648,28.649A28.682,28.682,0,0,0,131.336,285.658Zm0,41.3a12.649,12.649,0,1,1,12.648-12.649A12.663,12.663,0,0,1,131.336,326.956Z" fill="#d7d7d7" data-original="#000000" style="" class=""/><path xmlns="http://www.w3.org/2000/svg" d="M131.336,349.9a28.649,28.649,0,1,0,28.648,28.648A28.681,28.681,0,0,0,131.336,349.9Zm0,41.3a12.649,12.649,0,1,1,12.648-12.649A12.663,12.663,0,0,1,131.336,391.2Z" fill="#d7d7d7" data-original="#000000" style="" class=""/><path xmlns="http://www.w3.org/2000/svg" d="M455,250a8,8,0,0,0-8-8H295a8,8,0,0,0-8,8V378a8,8,0,0,0,8,8H447a8,8,0,0,0,8-8ZM439,369H303V258H439Z" fill="#d7d7d7" data-original="#000000" style="" class=""/></g></svg>
