<?xml version="1.0"?>
<svg xmlns="http://www.w3.org/2000/svg" xmlns:xlink="http://www.w3.org/1999/xlink" xmlns:svgjs="http://svgjs.com/svgjs" version="1.1" width="512" height="512" x="0" y="0" viewBox="0 0 512 512" style="enable-background:new 0 0 512 512" xml:space="preserve" class=""><g><title xmlns="http://www.w3.org/2000/svg">Sd card</title><path xmlns="http://www.w3.org/2000/svg" d="M358.094,30.06A7.78,7.78,0,0,0,352.47,28H115.5C94.547,28,77,44.547,77,65.5v72a8,8,0,0,0,5.029,7.428L102,152.917V263.083l-19.971,7.989A8,8,0,0,0,77,278.5v168A38.9,38.9,0,0,0,115.5,485h281c20.953,0,37.5-17.547,37.5-38.5v-198a8,8,0,0,0-4.811-7.336L411,233.255v-56.51l18.189-7.909A8,8,0,0,0,434,161.5V108.67a7.489,7.489,0,0,0-2.126-5.565ZM418,156.255l-18.189,7.909A8,8,0,0,0,395,171.5v67a8,8,0,0,0,4.811,7.336L418,253.745V446.5c0,12.131-9.369,22.5-21.5,22.5h-281A22.889,22.889,0,0,1,93,446.5V283.917l19.971-7.989A8,8,0,0,0,118,268.5v-121a8,8,0,0,0-5.029-7.428L93,132.083V65.5C93,53.369,103.369,44,115.5,44H349.184L418,112.011Z" fill="#d7d7d7" data-original="#000000" style=""/><path xmlns="http://www.w3.org/2000/svg" d="M139,125.661v291.88c0,4.418,3.319,8.459,7.737,8.459H365.263a8.281,8.281,0,0,0,8.1-8.23c0-.932-.358-2.058-.358-2.89V125.661c0-4.418-3.772-7.661-8.19-7.661H146.737A7.5,7.5,0,0,0,139,125.661ZM155,410V184H357V410ZM357,134v34H155V134Z" fill="#d7d7d7" data-original="#000000" style=""/><path xmlns="http://www.w3.org/2000/svg" d="M325,296a8,8,0,0,0-8-8H194a8,8,0,0,0-8,8v61a8,8,0,0,0,8,8H317a8,8,0,0,0,8-8Zm-16,53H202V304H309Z" fill="#d7d7d7" data-original="#000000" style=""/></g></svg>
