<?xml version="1.0"?>
<svg xmlns="http://www.w3.org/2000/svg" xmlns:xlink="http://www.w3.org/1999/xlink" xmlns:svgjs="http://svgjs.com/svgjs" version="1.1" width="512" height="512" x="0" y="0" viewBox="0 0 512 512" style="enable-background:new 0 0 512 512" xml:space="preserve" class=""><g><title xmlns="http://www.w3.org/2000/svg">Timer</title><path xmlns="http://www.w3.org/2000/svg" d="M449.164,196.4a8,8,0,0,0-13.38,0l-53.838,82.09A8.089,8.089,0,0,0,388.636,291h43.615a188.237,188.237,0,0,1-63.384,114.229C336,433.413,294.731,449.547,255.65,449.547c-25.475,0-52.126-6.889-77.071-19.9a191.844,191.844,0,0,1-65.746-56.4A8,8,0,1,0,99.925,382.7a207.888,207.888,0,0,0,71.257,61.125c27.219,14.193,56.428,21.694,84.468,21.694,42.844,0,87.906-17.51,123.632-48.143A203.471,203.471,0,0,0,448.428,291h47.884A8.073,8.073,0,0,0,503,278.523ZM403.449,275l39.025-59.5L481.5,275Z" fill="#d7d7d7" data-original="#000000" style="" class=""/><path xmlns="http://www.w3.org/2000/svg" d="M130.4,225.259a8.057,8.057,0,0,0-7.04-4.259H79.749a188.237,188.237,0,0,1,63.384-114.229C176,78.587,217.269,62.453,256.35,62.453c25.475,0,52.126,6.889,77.071,19.9a191.844,191.844,0,0,1,65.746,56.4,8,8,0,1,0,12.908-9.448,207.888,207.888,0,0,0-71.257-61.125C313.6,53.983,284.39,46.482,256.35,46.482c-42.844,0-87.906,17.51-123.631,48.143A203.467,203.467,0,0,0,63.572,221H15.688A8.073,8.073,0,0,0,9,233.477l53.838,82.1a8,8,0,0,0,13.38.011l53.838-82.118A8.052,8.052,0,0,0,130.4,225.259ZM69.526,296.5,30.5,237h78.05Z" fill="#d7d7d7" data-original="#000000" style="" class=""/><path xmlns="http://www.w3.org/2000/svg" d="M138.943,267.426A117.057,117.057,0,1,0,341.2,187.245l8.652-8.652a8,8,0,0,0-11.314-11.313l-9.08,9.08A116.484,116.484,0,0,0,264,150.648V144h14.947a8,8,0,0,0,0-16H233.053a8,8,0,0,0,0,16H248v6.648A117.2,117.2,0,0,0,138.943,267.426ZM264,368.127v-13.59a8,8,0,0,0-16,0V368.2c-49-3.671-88.529-43.2-92.689-92.2h13.028a8,8,0,0,0,0-16H155.217C158.846,210,199,170.352,248,166.652v12.694a8,8,0,0,0,16,0V166.724A101.475,101.475,0,0,1,356.783,260H342.53a8,8,0,0,0,0,16h14.159C352.554,325,313,364.062,264,368.127Z" fill="#d7d7d7" data-original="#000000" style="" class=""/><path xmlns="http://www.w3.org/2000/svg" d="M288.142,261H264V225.566a8,8,0,0,0-16,0v43.068c0,4.418,3.437,8.366,7.855,8.366h32.287a8,8,0,1,0,0-16Z" fill="#d7d7d7" data-original="#000000" style="" class=""/></g></svg>
