<?xml version="1.0"?>
<svg xmlns="http://www.w3.org/2000/svg" xmlns:xlink="http://www.w3.org/1999/xlink" xmlns:svgjs="http://svgjs.com/svgjs" version="1.1" width="512" height="512" x="0" y="0" viewBox="0 0 512 512" style="enable-background:new 0 0 512 512" xml:space="preserve" class=""><g><title xmlns="http://www.w3.org/2000/svg">Stand</title><path xmlns="http://www.w3.org/2000/svg" d="M449.259,468.7,281.355,180h36.17A8.808,8.808,0,0,0,326,171.554V138.708c0-4.419-4.057-7.708-8.475-7.708H284V66h47.759A8.483,8.483,0,0,0,340,57.686V26.3a8.469,8.469,0,0,0-8.241-8.3h-151.1C176.246,18,173,21.88,173,26.3V57.686C173,62.1,176.246,66,180.664,66h17.3l-38.853,48H106a8,8,0,0,0,0,16h56.94a7.857,7.857,0,0,0,6.235-2.83L218.491,66H229v65H194.9a7.668,7.668,0,0,0-7.9,7.708v32.846c0,4.419,3.479,8.446,7.9,8.446h35.682L62.6,468.7a7.869,7.869,0,0,0,2.837,10.791l22.284,13.152a8.029,8.029,0,0,0,11-2.912L234,256.367V431a8,8,0,0,0,8,8h26a8,8,0,0,0,8-8V256.2L412.293,489.733a7.994,7.994,0,0,0,10.875,2.916l23.14-13.207a7.745,7.745,0,0,0,2.951-10.744ZM189,34H324V50H189Zm56,32h23v65H245Zm-42,81H310v17H203ZM422.118,474.826,274.909,222.584A8,8,0,0,0,260,226.616V423H250V226.616a8,8,0,0,0-14.921-4.012L88.934,474.7l-8.51-4.821L249.087,180H262.85L431.374,469.766Z" fill="#d7d7d7" data-original="#000000" style=""/></g></svg>
